<svg width="270" height="180" viewBox="0 0 270 180" fill="none" xmlns="http://www.w3.org/2000/svg">
<g clip-path="url(#clip0_2079_3969)">
<path d="M0 10C0 4.47716 4.47715 0 10 0H260C265.523 0 270 4.47715 270 10V180H0V10Z" fill="#EFFFDE"/>
<path d="M96.999 101.828C99.6474 109.442 108.241 114.303 112.31 115.613C108.337 113.958 106.516 111.751 106.103 110.854C106.278 110.731 106.461 110.609 106.652 110.487C108.183 109.32 108.792 107.332 108.792 106.587C108.792 103.111 105.758 102.242 104.241 102.242C104.241 96.035 106.93 92.7245 110.034 92.3107C112.659 91.9607 111.551 91.4142 110.655 90.8624C100.309 86.5175 97.2059 96.2419 96.999 101.828Z" fill="white"/>
<path d="M113.551 90.0348C99.3163 83.745 96.5852 95.2763 96.999 101.828C97.2059 96.2419 100.309 86.5175 110.655 90.8624C112.724 91.69 120.172 95.6212 122.655 104.725C123.091 106.325 123.524 110.187 122.862 113.001C122.862 113.001 124.195 111.346 123.276 104.725C122.241 97.2764 118.931 93.3452 113.551 90.0348Z" fill="#13181D"/>
<path fill-rule="evenodd" clip-rule="evenodd" d="M122.655 104.725C120.172 95.6212 112.724 91.69 110.655 90.8624C111.551 91.4142 112.659 91.9607 110.034 92.3107C106.93 92.7245 104.241 96.035 104.241 102.242C105.758 102.242 108.792 103.111 108.792 106.587C108.792 107.332 108.183 109.32 106.652 110.487C108.714 109.175 111.731 108.01 116.655 108.578C121 109.406 123.482 112.096 120.793 115.283C121.823 114.62 122.621 113.483 122.862 113.001C123.524 110.187 123.091 106.325 122.655 104.725ZM112.103 102.449C112.268 97.9799 115.068 96.8626 116.448 96.8626C119.138 96.8626 120.379 100.794 120.379 102.449C120.379 106.421 117.758 107.828 116.448 108.035C112.972 107.539 112.103 104.104 112.103 102.449Z" fill="#529F00"/>
<path d="M116.448 96.8626C115.068 96.8626 112.268 97.9799 112.103 102.449C112.103 104.104 112.972 107.539 116.448 108.035C117.758 107.828 120.379 106.421 120.379 102.449C120.379 100.794 119.138 96.8626 116.448 96.8626Z" fill="white"/>
<path d="M106.103 110.854C106.516 111.751 108.337 113.958 112.31 115.613C116.46 117.03 119.171 116.327 120.793 115.283C123.482 112.096 121 109.406 116.655 108.578C111.731 108.01 108.714 109.175 106.652 110.487C106.483 110.616 106.3 110.739 106.103 110.854Z" fill="#4B8D04"/>
<path d="M171.484 101.828C168.835 109.442 160.242 114.303 156.173 115.613C160.146 113.958 161.966 111.751 162.38 110.854C162.205 110.731 162.022 110.609 161.831 110.487C160.3 109.32 159.69 107.332 159.69 106.587C159.69 103.111 162.725 102.242 164.242 102.242C164.242 96.035 161.552 92.7245 158.449 92.3107C155.824 91.9607 156.932 91.4142 157.828 90.8624C168.173 86.5175 171.277 96.2419 171.484 101.828Z" fill="white"/>
<path d="M154.932 90.0348C169.166 83.745 171.898 95.2763 171.484 101.828C171.277 96.2419 168.173 86.5175 157.828 90.8624C155.759 91.69 148.311 95.6212 145.828 104.725C145.391 106.325 144.959 110.187 145.621 113.001C145.621 113.001 144.288 111.346 145.207 104.725C146.242 97.2764 149.552 93.3452 154.932 90.0348Z" fill="#13181D"/>
<path fill-rule="evenodd" clip-rule="evenodd" d="M145.828 104.725C148.311 95.6212 155.759 91.69 157.828 90.8624C156.932 91.4142 155.824 91.9607 158.449 92.3107C161.552 92.7245 164.242 96.035 164.242 102.242C162.725 102.242 159.69 103.111 159.69 106.587C159.69 107.332 160.3 109.32 161.831 110.487C159.768 109.175 156.751 108.01 151.828 108.578C147.483 109.406 145 112.096 147.69 115.283C146.66 114.62 145.862 113.483 145.621 113.001C144.959 110.187 145.391 106.325 145.828 104.725ZM156.38 102.449C156.214 97.9799 153.414 96.8626 152.035 96.8626C149.345 96.8626 148.104 100.794 148.104 102.449C148.104 106.421 150.725 107.828 152.035 108.035C155.511 107.539 156.38 104.104 156.38 102.449Z" fill="#529F00"/>
<path d="M152.035 96.8626C153.414 96.8626 156.214 97.9799 156.38 102.449C156.38 104.104 155.511 107.539 152.035 108.035C150.725 107.828 148.104 106.421 148.104 102.449C148.104 100.794 149.345 96.8626 152.035 96.8626Z" fill="white"/>
<path d="M162.38 110.854C161.966 111.751 160.146 113.958 156.173 115.613C152.023 117.03 149.312 116.327 147.69 115.283C145 112.096 147.483 109.406 151.828 108.578C156.751 108.01 159.768 109.175 161.831 110.487C162 110.616 162.183 110.739 162.38 110.854Z" fill="#4B8D04"/>
<path d="M125.138 116.932C126.172 115.691 130.103 113.622 134.448 113.622C138.175 113.622 141.276 115.277 143.345 116.932C143.483 117.139 143.593 117.511 142.931 117.346C141.897 116.725 139 115.484 134.448 115.484C129.896 115.484 128.034 116.104 125.551 117.346C125.312 117.465 124.724 117.553 125.138 116.932Z" fill="#13181D"/>
<path d="M129.276 118.587C129.965 118.725 131.759 119.622 131.759 120.449C131.552 121.691 130.103 121.277 130.103 120.243C130.103 119.58 129.483 119.001 128.862 118.794C128.862 118.794 128.614 118.422 129.276 118.587Z" fill="#13181D"/>
<path d="M139.828 118.587C139.138 118.725 137.345 119.622 137.345 120.449C137.552 121.691 139 121.277 139 120.243C139 119.58 139.621 119.001 140.242 118.794C140.242 118.794 140.49 118.422 139.828 118.587Z" fill="#13181D"/>
<path fill-rule="evenodd" clip-rule="evenodd" d="M128.241 124.794C128.535 124.794 134.241 127.484 140.242 124.794C140.703 124.587 143.36 124.38 142.517 128.312C142.326 129.205 142.036 130.138 141.551 131.001C140.463 132.936 138.392 134.519 134.241 134.519C132.066 134.519 129.078 134.113 127.139 131.001C126.681 130.266 126.282 129.38 125.965 128.312C125.551 126.036 125.758 124.794 128.241 124.794ZM137.138 132.657C136.876 132.787 135.897 132.864 134.241 132.864C132.585 132.864 131.759 132.864 131.345 132.657C130.517 132.036 130.724 131.208 131.345 130.588C132.076 129.856 133.207 129.346 134.241 129.346C135.897 129.346 136.644 130.093 137.138 130.588C138.102 131.551 137.552 132.45 137.138 132.657Z" fill="#13181D"/>
<path d="M134.241 132.864C135.897 132.864 136.876 132.787 137.138 132.657C137.552 132.45 138.102 131.551 137.138 130.588C136.644 130.093 135.897 129.346 134.241 129.346C133.207 129.346 132.076 129.856 131.345 130.588C130.724 131.208 130.517 132.036 131.345 132.657C131.759 132.864 132.585 132.864 134.241 132.864Z" fill="#E74465"/>
<path d="M134.862 89.8279C130.103 92.7245 133 95.8281 134.862 96.8626C136.793 95.8281 139.497 92.9728 134.862 89.8279Z" fill="#F7CDA9"/>
<path fill-rule="evenodd" clip-rule="evenodd" d="M134.862 87.9658C131.69 89.621 127.248 94.0901 134.862 98.7247C138.035 97.1385 142.476 92.7659 134.862 87.9658ZM134.862 89.8279C130.103 92.7245 133 95.8281 134.862 96.8626C136.793 95.8281 139.497 92.9728 134.862 89.8279Z" fill="#13181D"/>
<path d="M134.862 71.2067C131.69 73.2068 127.248 78.4069 134.862 83.207C138.035 81.4139 142.476 76.5034 134.862 71.2067Z" fill="#F7CDA9"/>
<path fill-rule="evenodd" clip-rule="evenodd" d="M134.862 69.5515C130.31 72.0343 123.938 78.5311 134.862 84.6554C139.345 82.5174 145.621 76.5034 134.862 69.5515ZM134.862 71.2067C131.69 73.2068 127.248 78.4069 134.862 83.207C138.035 81.4139 142.476 76.5034 134.862 71.2067Z" fill="#13181D"/>
<path d="M134.862 56.1029C132.034 57.6891 128.076 61.9375 134.862 66.2411C137.759 64.7928 141.814 60.7375 134.862 56.1029Z" fill="#F7CDA9"/>
<path d="M157.621 61.8961C149.676 56.9305 141.483 56.2408 138.379 56.5167C138.828 57.2418 139.178 57.9313 139.44 58.5856C147.483 58.9994 155.776 62.2409 158.242 63.5513C162.361 65.6872 160.104 63.3444 158.449 61.888C158.422 61.9055 158.393 61.9211 158.364 61.935C158.14 62.0396 157.847 62.0373 157.621 61.8961Z" fill="#FFE3CB"/>
<path d="M157.001 51.7579C155.842 51.5924 155.966 52.5166 156.173 52.9993C156.466 53.2927 156.664 53.9932 156.795 54.8614C163.21 50.7233 167.966 45.137 167.139 34.0789C166.508 34.1218 166.195 34.7508 166.104 35.2058C165.608 44.3095 159.828 50.0337 157.001 51.7579Z" fill="#FFE3CB"/>
<path d="M131.344 56.5167C122.572 56.1857 114.861 60.103 112.103 62.103C111.703 62.2742 111.335 62.288 111.068 62.1878C109.275 63.6078 107.234 65.4982 113.855 62.1878C116.093 61.0685 120.792 59.2063 130.256 58.5856C130.565 57.7884 130.956 57.0785 131.344 56.5167Z" fill="#FFE3CB"/>
<path d="M112.723 51.9648C105.689 45.5508 104.033 40.1713 103.62 35.6195C103.278 34.2526 102.628 34.0028 101.964 34.2327C102.378 51.9648 112.103 54.2407 112.509 54.8614C112.639 54.1745 112.841 54.0242 113.137 53.8269C113.734 52.931 113.254 52.4728 112.85 52.0879C112.807 52.0462 112.764 52.0053 112.723 51.9648Z" fill="#FFE3CB"/>
<path d="M96.5849 80.5172C97.0313 79.7732 97.2637 79.2432 97.436 78.8503C97.5032 78.6969 97.5613 78.5644 97.6194 78.4482C97.8413 78.1154 97.9739 78.1026 98.0332 78.2139C98.0332 77.3644 99.0259 75.2707 100.516 73.4826C101.551 72.2412 100.654 71.8273 100.309 71.4136C90.9986 61.6892 94.4801 45.8957 97.4622 38.9299C83.2489 56.9088 89.8842 73.6692 95.3435 80.1034C95.7573 81.138 96.0138 81.4691 96.5849 80.5172Z" fill="#AADB76"/>
<path d="M90.5757 103.85C90.7267 103.974 90.861 104.093 90.98 104.205C92.2088 105.212 93.3861 105.528 93.8952 105.552C95.3849 105.883 94.9297 105.139 94.5159 104.725C88.8882 98.6006 88.7226 93.1125 89.3433 91.1339C85.8686 90.6099 84.9984 91.9157 84.9984 92.9314C84.8395 96.2685 88.2434 101.156 90.171 103.439C90.3052 103.585 90.4404 103.722 90.5757 103.85Z" fill="#AADB76"/>
<path d="M173.967 119.001C180.174 116.725 184.529 113.415 184.725 109.69C184.786 108.546 184.354 107.75 183.695 107.208C183.624 108.587 181.332 111.635 174.38 113.622C174.173 113.553 173.387 113.994 171.897 116.311C168.425 120.863 157.496 130.174 141.551 131.001C140.463 132.936 138.392 134.519 134.241 134.519C132.066 134.519 129.078 134.113 127.139 131.001C109.375 129.181 99.644 119.764 96.999 115.283C96.378 114.035 95.4126 113.626 94.9297 113.622C88.8054 112.029 86.0934 109.234 85.5029 108.035C85.0992 108.623 84.9735 109.237 84.9987 109.69C84.8332 113.994 92.1023 117.691 95.7576 119.001C96.4197 118.836 97.2749 119.898 97.6197 120.449C100.933 125.459 105.887 129.081 111.225 131.622C119.555 135.587 128.819 136.921 134.241 136.795C144.292 136.988 152.267 134.743 158.418 131.622C165.435 128.06 170.079 123.357 172.725 119.829C172.932 119.622 173.346 119.208 173.967 119.001Z" fill="#AADB76"/>
<path d="M184.519 94.1728C184.519 90.5748 182.896 90.569 179.553 91.2306C180.794 92.7631 181.622 97.6074 175.001 104.725C174.656 105.07 174.339 105.677 175.828 105.346C176.58 105.172 178.239 104.632 178.913 103.847C178.92 103.84 178.926 103.832 178.932 103.825C184.54 97.1847 184.525 95.1077 184.519 94.2502C184.519 94.249 184.519 94.2477 184.519 94.2466C184.519 94.2209 184.519 94.1963 184.519 94.1728Z" fill="#AADB76"/>
<path d="M174.587 79.6896C179.553 73.0688 180.587 64.7237 180.587 61.0685C180.961 52.8448 176.278 44.418 172.115 38.9299C175.077 45.3439 178.725 60.7789 169.621 71.2067C169.07 71.6205 168.214 72.655 169.208 73.4826C169.897 74.2628 171.36 76.2512 171.691 77.9633C171.755 77.9568 171.829 77.9827 171.898 78.0344C172.311 78.2413 172.725 79.4138 172.932 80.1034C173.263 81.2621 174.122 80.3103 174.587 79.6896Z" fill="#AADB76"/>
<path fill-rule="evenodd" clip-rule="evenodd" d="M128.241 124.794C128.535 124.794 134.241 127.484 140.242 124.794C140.703 124.587 143.36 124.38 142.517 128.312C142.326 129.205 142.036 130.138 141.551 131.001C157.496 130.174 168.425 120.863 171.897 116.311C173.387 113.994 174.173 113.553 174.38 113.622C181.332 111.635 183.624 108.587 183.695 107.208C182.542 106.26 180.693 106.085 179.553 106.173C177.07 106.339 177.829 105.001 178.518 104.311C178.653 104.154 178.785 103.999 178.913 103.847C178.239 104.632 176.58 105.172 175.828 105.346C174.339 105.677 174.656 105.07 175.001 104.725C181.622 97.6074 180.794 92.7631 179.553 91.2306C179.201 91.3003 178.83 91.3773 178.439 91.4584C177.764 91.5985 177.032 91.7506 176.242 91.8969C174.426 92.2332 174.339 91.0315 174.249 89.7877C174.229 89.5223 174.21 89.255 174.173 89.0002C173.883 86.9691 173.506 85.7665 173.067 84.365C172.656 83.054 172.191 81.5689 171.691 79.0689C171.38 78.293 171.497 77.9827 171.691 77.9633C171.36 76.2512 169.897 74.2628 169.208 73.4826C168.214 72.655 169.07 71.6205 169.621 71.2067C178.725 60.7789 175.077 45.3439 172.115 38.9299C170.748 37.1276 169.437 35.6422 168.38 34.5851C167.873 34.1907 167.464 34.0568 167.139 34.0789C167.966 45.137 163.21 50.7233 156.795 54.8614C157.032 56.4428 157.045 58.5805 157.001 59.8271C158.748 60.701 158.889 61.4464 158.56 61.7959C158.527 61.8306 158.49 61.8614 158.449 61.888C160.104 63.3444 162.361 65.6872 158.242 63.5513C155.776 62.2409 147.483 58.9994 139.44 58.5856C141.691 64.2046 137.518 67.2384 134.862 68.1032C129.101 65.8771 129.088 61.605 130.256 58.5856C120.792 59.2063 116.093 61.0685 113.855 62.1878C107.234 65.4982 109.275 63.6078 111.068 62.1878C110.367 61.9247 110.362 60.8759 112.309 59.827C112.309 57.0133 112.366 55.6147 112.509 54.8614C112.103 54.2407 102.378 51.9648 101.964 34.2327C101.343 34.4482 100.71 35.0855 100.309 35.6195C99.2788 36.7261 98.3315 37.8303 97.4622 38.9299C94.4801 45.8957 90.9986 61.6892 100.309 71.4136C100.654 71.8273 101.551 72.2412 100.516 73.4826C99.0259 75.2707 98.0332 77.3644 98.0332 78.2139C98.0846 78.3103 98.0811 78.4996 98.0332 78.6551C95.5504 86.7243 95.3435 89.8278 95.3435 90.8624C95.3435 92.5176 93.9642 92.4486 93.0676 92.1038C91.5787 91.592 90.3514 91.2859 89.3433 91.1339C88.7226 93.1125 88.8882 98.6006 94.5159 104.725C94.9297 105.139 95.3849 105.883 93.8952 105.552C93.3861 105.528 92.2088 105.212 90.98 104.205C92.4804 105.625 91.5359 106.111 90.792 106.173C87.7452 106.068 86.2044 107.013 85.5029 108.035C86.0934 109.234 88.8054 112.029 94.9297 113.622C95.4126 113.626 96.378 114.035 96.999 115.283C99.644 119.764 109.375 129.181 127.139 131.001C126.681 130.266 126.282 129.38 125.965 128.312C125.551 126.036 125.758 124.794 128.241 124.794ZM96.999 101.828C96.5852 95.2763 99.3163 83.745 113.551 90.0348C118.931 93.3452 122.241 97.2764 123.276 104.725C124.195 111.346 122.862 113.001 122.862 113.001C122.621 113.483 121.823 114.62 120.793 115.283C119.171 116.327 116.46 117.03 112.31 115.613C108.241 114.303 99.6474 109.442 96.999 101.828ZM154.932 90.0348C169.166 83.745 171.898 95.2763 171.484 101.828C168.835 109.442 160.242 114.303 156.173 115.613C152.023 117.03 149.312 116.327 147.69 115.283C146.66 114.62 145.862 113.483 145.621 113.001C145.621 113.001 144.288 111.346 145.207 104.725C146.242 97.2764 149.552 93.3452 154.932 90.0348ZM134.448 113.622C130.103 113.622 126.172 115.691 125.138 116.932C124.724 117.553 125.312 117.465 125.551 117.346C128.034 116.104 129.896 115.484 134.448 115.484C139 115.484 141.897 116.725 142.931 117.346C143.593 117.511 143.483 117.139 143.345 116.932C141.276 115.277 138.175 113.622 134.448 113.622ZM131.759 120.449C131.759 119.622 129.965 118.725 129.276 118.587C128.614 118.422 128.862 118.794 128.862 118.794C129.483 119.001 130.103 119.58 130.103 120.243C130.103 121.277 131.552 121.691 131.759 120.449ZM137.345 120.449C137.345 119.622 139.138 118.725 139.828 118.587C140.49 118.422 140.242 118.794 140.242 118.794C139.621 119.001 139 119.58 139 120.243C139 121.277 137.552 121.691 137.345 120.449ZM134.862 87.9658C131.69 89.621 127.248 94.0901 134.862 98.7247C138.035 97.1385 142.476 92.7659 134.862 87.9658ZM134.862 69.5515C130.31 72.0343 123.938 78.5311 134.862 84.6554C139.345 82.5174 145.621 76.5034 134.862 69.5515Z" fill="#C0DE9F"/>
<path d="M117.689 48.2402C117.58 48.3856 117.462 48.5377 117.337 48.6982L117.337 48.6991C116.044 50.3662 114.045 52.944 113.965 58.3784C113.965 58.7924 113.965 59.4129 114.999 58.5856C116.103 57.9648 118.972 56.6404 121.62 56.3094C122.31 56.3096 123.441 56.0617 122.448 55.0683C121.689 54.4475 120.13 52.0472 119.965 47.4126C119.758 46.3781 118.723 46.7919 117.689 48.2402Z" fill="#F7CDA9"/>
<path d="M152.035 48.2402C152.144 48.3859 152.262 48.5382 152.387 48.6991C153.68 50.3663 155.679 52.944 155.759 58.3784C155.759 58.7924 155.759 59.4129 154.724 58.5856C153.621 57.9648 150.752 56.6404 148.104 56.3094C147.414 56.3096 146.283 56.0617 147.276 55.0683C148.035 54.4475 149.593 52.0472 149.759 47.4126C149.966 46.3781 151 46.7919 152.035 48.2402Z" fill="#F7CDA9"/>
<path d="M189.898 135.139C189.139 134.794 187.87 134.477 188.863 135.967C189.898 137.519 192.023 141.764 193.27 146.933C192.905 143.732 193.622 138.166 199.415 141.511C196.332 138.788 192.693 136.038 189.898 135.139Z" fill="#E5BA95"/>
<path d="M187.622 135.76C187.304 135.226 186.794 134.518 186.38 135.967C185.975 138.262 184.424 143.114 182.303 147.76C185.553 141.76 188.586 140.519 192.759 149.415C191.89 145.226 190.288 140.244 187.622 135.76Z" fill="#E5BA95"/>
<path d="M185.553 135.967C186.38 134.725 185.511 134.518 184.518 135.346C181.415 137.898 172.352 142.132 160.931 138.656C159.747 138.262 159.177 138.133 159.978 139.484C161.537 140.725 165.69 142.381 171.69 142.381C174.859 142.588 181.094 143.953 180.685 147.76C183.201 141.913 184.054 138.216 185.553 135.967Z" fill="#E5BA95"/>
<path d="M160.104 139.691C163.207 144.657 166.104 148.174 167.139 150.243C167.404 150.774 167.759 151.484 169.414 151.484C171.483 151.277 174.173 152.395 175.828 155.209C176.104 155.622 176.449 156.243 177.07 155.209C178.584 152.405 179.749 149.934 180.685 147.76C181.094 143.953 174.859 142.588 171.69 142.381C165.69 142.381 161.537 140.725 159.978 139.484C160.016 139.549 160.059 139.618 160.104 139.691Z" fill="#F7CDA9"/>
<path d="M178.518 154.588C178.104 155.278 177.732 156.409 179.553 155.416C182.104 154.795 188.201 154.174 192.174 156.657C192.656 157.071 193.622 157.65 193.622 156.657C193.622 154.943 193.374 152.377 192.759 149.415C188.586 140.519 185.553 141.76 182.303 147.76C181.174 150.233 179.884 152.648 178.518 154.588Z" fill="#F7CDA9"/>
<path d="M194.243 154.588C194.312 155.278 194.574 156.326 195.07 155.002C196.174 152.933 198.381 149.208 203.139 147.76C204.381 147.553 205.209 147.553 204.381 146.312C203.231 145.08 201.444 143.301 199.415 141.511C193.622 138.166 192.905 143.732 193.27 146.933C193.852 149.343 194.243 151.955 194.243 154.588Z" fill="#F7CDA9"/>
<path d="M158.035 134.725C159.69 137.829 171.69 141.553 184.932 133.07C185.484 132.656 186.836 131.994 187.829 132.656C190.932 133.622 198.588 137.208 204.381 143.829C201.484 136.794 192.546 122.849 179.966 123.346C179.415 123.484 178.684 124.008 180.173 125.001C181.415 125.622 182.276 126.719 178.932 128.725C173.346 132.077 169.042 135.222 159.276 133.898C158.587 133.691 157.373 133.567 158.035 134.725Z" fill="#C0DE9F"/>
<path d="M79.5383 134.945C80.2969 134.6 81.5659 134.283 80.5728 135.773C79.5382 137.325 77.4132 141.57 76.166 146.739C76.5315 143.538 75.8141 137.972 70.0208 141.317C73.104 138.594 76.7427 135.844 79.5383 134.945Z" fill="#E5BA95"/>
<path d="M81.8142 135.566C82.1319 135.032 82.6418 134.324 83.0556 135.773C83.4607 138.068 85.0116 142.92 87.1329 147.566C83.8832 141.566 80.8504 140.325 76.677 149.221C77.5462 145.032 79.1477 140.05 81.8142 135.566Z" fill="#E5BA95"/>
<path d="M83.8832 135.773C83.0556 134.531 83.9246 134.324 84.9177 135.152C88.0213 137.704 97.0836 141.938 108.505 138.462C109.689 138.068 110.259 137.939 109.458 139.29C107.899 140.531 103.746 142.187 97.7457 142.187C94.577 142.394 88.3421 143.759 88.7512 147.566C86.2352 141.719 85.3824 138.022 83.8832 135.773Z" fill="#E5BA95"/>
<path d="M109.332 139.497C106.229 144.463 103.332 147.98 102.298 150.049C102.032 150.58 101.677 151.29 100.022 151.29C97.9526 151.083 95.2628 152.201 93.6076 155.015C93.3318 155.428 92.9869 156.049 92.3662 155.015C90.8521 152.211 89.6867 149.74 88.7512 147.566C88.3421 143.759 94.577 142.394 97.7457 142.187C103.746 142.187 107.899 140.531 109.458 139.29C109.42 139.356 109.378 139.424 109.332 139.497Z" fill="#F7CDA9"/>
<path d="M90.9179 154.394C91.3317 155.084 91.7041 156.215 89.8834 155.222C87.3316 154.601 81.2349 153.98 77.2624 156.463C76.7796 156.877 75.8141 157.456 75.8141 156.463C75.8141 154.749 76.0625 152.183 76.677 149.221C80.8504 140.325 83.8832 141.566 87.1329 147.566C88.2619 150.039 89.5525 152.454 90.9179 154.394Z" fill="#F7CDA9"/>
<path d="M75.1933 154.394C75.1244 155.084 74.8623 156.132 74.3657 154.808C73.2623 152.739 71.0553 149.014 66.2966 147.566C65.0551 147.359 64.2275 147.359 65.0551 146.118C66.2046 144.886 67.9925 143.108 70.0208 141.317C75.8141 137.972 76.5315 143.538 76.166 146.739C75.5842 149.15 75.1933 151.761 75.1933 154.394Z" fill="#F7CDA9"/>
<path d="M111.401 134.531C109.746 137.635 97.7457 141.359 84.5039 132.876C83.9522 132.462 82.6004 131.8 81.6073 132.462C78.5038 133.428 70.8484 137.014 65.0551 143.635C67.9518 136.6 76.8899 122.655 89.4696 123.152C90.0213 123.29 90.7524 123.814 89.2627 124.807C88.0213 125.428 87.1605 126.525 90.5041 128.531C96.0905 131.883 100.394 135.028 110.16 133.704C110.849 133.497 112.063 133.373 111.401 134.531Z" fill="#C0DE9F"/>
<path d="M120.999 197.21C121.551 196.313 120.517 194.451 119.758 193.279C119.114 191.238 118.952 190.034 119.043 189.347C117.902 188.244 115.785 186.699 116.448 189.347C117.074 191.854 116.448 196.382 115.413 196.589C115.048 196.772 114.392 197.277 114.357 197.962C114.371 198.06 114.379 198.155 114.379 198.244C114.213 200.065 114.792 200.139 115.413 200.106C118.558 199.941 120.448 198.106 120.999 197.21Z" fill="#AADB76"/>
<path d="M143.345 196.382C145.621 195.968 147.483 196.175 148.104 191.416C148.121 191.193 148.14 190.987 148.16 190.796C136.951 195.099 125.474 192.589 121.137 190.796C121.172 191.018 121.195 191.229 121.206 191.416C121.703 195.058 122.843 195.714 123.896 195.968C129.896 197.417 137.552 197.624 143.345 196.382Z" fill="#AADB76"/>
<path d="M154.931 199.072C154.955 198.959 154.979 198.849 155.004 198.742C155.142 197.83 154.621 197.479 154.311 197.417C152.324 196.755 152.517 191.761 152.862 189.347C153.524 186.699 151.27 188.088 150.06 189.114C150.368 190.269 149.643 192.683 149.345 193.279C148.31 195.348 148.173 196.658 148.31 197.21C148.807 198.368 151.828 199.486 153.276 199.899C154.931 200.52 154.844 199.486 154.931 199.072Z" fill="#AADB76"/>
<path d="M155.759 200.52C159.069 201.141 161.052 200.727 160.931 200.313C160.823 199.943 160.716 199.598 160.608 199.279C157.701 199.61 156.298 199.003 155.96 198.658C155.74 199.476 155.659 200.221 155.759 200.52Z" fill="#E5BA95"/>
<path d="M161.759 200.313C163.621 201.141 167.139 200.52 167.552 199.899C167.552 199.571 167.488 199.135 167.37 198.658C165.072 199.486 162.773 199.417 161.91 199.279C161.852 199.601 161.802 199.945 161.759 200.313Z" fill="#E5BA95"/>
<path d="M168.587 199.693C170.035 199.899 171.621 198.589 172.311 197.83C172.517 197.624 172.654 197.416 172.736 197.21C171.751 198.037 169.583 198.316 168.621 198.352C168.578 198.846 168.571 199.313 168.587 199.693Z" fill="#E5BA95"/>
<path d="M112.516 200.727C113.857 200.675 113.827 200.244 113.758 199.899C113.599 199.265 113.437 198.716 113.274 198.244C113.33 199.072 112.481 200.437 108.635 199.279C108.545 199.489 108.459 199.697 108.378 199.899C107.965 200.727 110.723 200.796 112.516 200.727Z" fill="#E5BA95"/>
<path d="M106.102 200.727C107.551 200.727 107.749 200.715 107.551 199.899C107.453 199.498 107.353 199.125 107.25 198.779C104.692 200.2 102.751 199.015 102.101 198.244C101.971 198.636 101.856 199.053 101.757 199.486C101.551 200.727 104.421 200.771 106.102 200.727Z" fill="#E5BA95"/>
<path d="M99.2747 199.486C100.93 200.313 100.93 199.486 100.93 198.658V198.13C100.103 199.049 99.4821 198.865 97.0022 198.131L96.9987 198.13C97.066 198.174 97.1355 198.212 97.2056 198.244L99.2747 199.486Z" fill="#E5BA95"/>
<path d="M155.96 198.658C156.62 196.209 158.532 193.1 160.608 199.279C157.701 199.61 156.298 199.003 155.96 198.658Z" fill="#F7CDA9"/>
<path d="M164.656 194.934C163.962 194.934 162.53 195.834 161.91 199.279C162.773 199.417 165.072 199.486 167.37 198.658C166.967 197.035 165.935 194.934 164.656 194.934Z" fill="#F7CDA9"/>
<path d="M170.863 194.727C169.332 194.727 168.768 196.692 168.621 198.352C169.583 198.316 171.751 198.037 172.736 197.21C173.241 195.925 171.576 194.727 170.863 194.727Z" fill="#F7CDA9"/>
<path d="M108.635 199.279C109.799 196.552 111.641 193.544 113.274 198.244C113.33 199.072 112.481 200.437 108.635 199.279Z" fill="#F7CDA9"/>
<path d="M102.101 198.244C103.262 194.732 105.577 193.159 107.25 198.779C104.692 200.2 102.751 199.015 102.101 198.244Z" fill="#F7CDA9"/>
<path d="M100.93 197.003C99.0677 193.279 97.8263 194.727 97.2056 195.348C95.8911 196.662 96.3378 197.693 96.9987 198.13L97.0022 198.131C99.4821 198.865 100.103 199.049 100.93 198.13V197.003Z" fill="#F7CDA9"/>
<path fill-rule="evenodd" clip-rule="evenodd" d="M122.404 157.113C133.784 163.527 137.923 175.527 119.302 179.459C118.134 179.676 116.7 179.82 115.224 179.748C111.554 179.57 107.626 178.061 106.888 173.045C106.681 169.527 106.681 165.803 108.129 161.044C108.492 160.379 109.047 159.543 108.73 160.802C108.686 160.978 108.624 161.194 108.543 161.458C108.519 161.716 108.494 161.978 108.468 162.244L108.468 162.245C107.847 168.737 107.014 177.432 114.503 178.195C114.585 178.203 114.667 178.211 114.75 178.217C115.095 178.286 115.578 178.217 115.578 177.183C115.578 176.791 115.627 176.349 115.723 175.905C116.185 173.773 117.732 171.582 120.13 174.493C120.16 174.538 120.189 174.582 120.217 174.624C120.254 174.682 120.29 174.737 120.325 174.791C120.991 175.811 121.164 176.077 121.164 173.045C121.164 171.803 122.695 169.734 124.682 171.389C124.991 171.647 125.858 172.339 125.509 170.769C125.095 168.907 126.585 166.093 129.233 168.079C129.854 168.562 130.889 169.072 130.061 167.251C129.026 165.251 126.045 160.589 122.404 157.941C121.904 157.552 121.241 156.929 121.785 156.963C121.916 156.971 122.116 157.017 122.404 157.113ZM126.337 170.976C126.006 167.831 128.199 168.643 129.233 169.113C129.799 169.371 130.134 169.653 130.31 169.945C130.841 170.829 129.907 171.802 129.44 172.424C128.406 173.803 127.386 174.522 126.776 173.045C126.585 172.584 126.435 171.91 126.337 170.976ZM126.13 175.527C127.164 174.907 126.544 174.237 126.13 173.665C124.806 171.836 123.716 171.731 123.233 171.803C121.578 171.837 121.785 174.286 121.785 175.527C121.578 178.631 124.406 176.562 126.13 175.527ZM118.475 178.217C121.713 177.755 121.618 177.522 120.246 176.148C119.777 175.679 119.159 175.076 118.475 174.286C117.316 173.293 116.75 175.114 116.612 176.148C116.414 177.072 116.406 177.635 116.526 177.968C116.784 178.678 117.629 178.338 118.475 178.217Z" fill="#13181D"/>
<path d="M118.475 178.217C121.713 177.755 121.618 177.522 120.246 176.148C120.136 176.762 119.238 177.985 116.526 177.968C116.784 178.678 117.629 178.338 118.475 178.217Z" fill="#E5BA95"/>
<path d="M126.13 175.527C127.164 174.907 126.544 174.237 126.13 173.665C124.772 175.486 122.668 175.665 121.785 175.527C121.578 178.631 124.406 176.562 126.13 175.527Z" fill="#E5BA95"/>
<path d="M126.776 173.045C127.386 174.522 128.406 173.803 129.44 172.424C129.907 171.802 130.841 170.829 130.31 169.945C129.482 171.803 127.609 172.786 126.776 173.045Z" fill="#E5BA95"/>
<path d="M118.475 174.286C117.316 173.293 116.75 175.114 116.612 176.148C116.414 177.072 116.406 177.635 116.526 177.968C119.238 177.985 120.136 176.762 120.246 176.148C119.777 175.679 119.159 175.076 118.475 174.286Z" fill="#F7CDA9"/>
<path d="M123.233 171.803C121.578 171.837 121.785 174.286 121.785 175.527C122.668 175.665 124.772 175.486 126.13 173.665C124.806 171.836 123.716 171.731 123.233 171.803Z" fill="#F7CDA9"/>
<path d="M129.233 169.113C128.199 168.643 126.006 167.831 126.337 170.976C126.435 171.91 126.585 172.584 126.776 173.045C127.609 172.786 129.482 171.803 130.31 169.945C130.134 169.653 129.799 169.371 129.233 169.113Z" fill="#F7CDA9"/>
<path fill-rule="evenodd" clip-rule="evenodd" d="M146.426 156.809C135.047 163.222 130.907 175.223 149.529 179.154C150.95 179.419 152.766 179.574 154.572 179.365C157.938 178.975 161.27 177.318 161.943 172.74C162.15 169.223 162.15 165.498 160.701 160.74C160.45 160.278 160.106 159.735 160.025 159.865C159.972 159.948 160.028 160.31 160.288 161.153C160.873 167.401 162.012 176.228 155.358 177.725C154.96 177.814 154.535 177.878 154.08 177.913C153.736 177.982 153.253 177.913 153.253 176.878C153.253 176.454 153.195 175.972 153.083 175.492C152.593 173.395 151.058 171.327 148.701 174.188C148.632 174.292 148.567 174.392 148.506 174.485L148.505 174.486C147.84 175.506 147.667 175.772 147.667 172.74C147.667 171.499 146.135 169.43 144.149 171.085C143.84 171.343 142.973 172.035 143.322 170.464C143.735 168.602 142.246 165.788 139.597 167.774C138.977 168.257 137.942 168.767 138.77 166.947C139.805 164.947 142.786 160.284 146.426 157.636C146.927 157.247 147.589 156.624 147.046 156.658C146.915 156.666 146.715 156.712 146.426 156.809ZM142.494 170.671C142.825 167.526 140.632 168.339 139.597 168.809C139.032 169.066 138.696 169.348 138.521 169.641C137.99 170.525 138.924 171.497 139.39 172.119C140.425 173.498 141.445 174.218 142.055 172.74C142.245 172.279 142.396 171.605 142.494 170.671ZM142.701 175.223C141.666 174.602 142.287 173.932 142.701 173.361C144.025 171.531 145.115 171.426 145.597 171.499C147.253 171.533 147.046 173.981 147.046 175.223C147.253 178.326 144.425 176.257 142.701 175.223ZM150.356 177.912C147.118 177.45 147.213 177.217 148.585 175.843C149.053 175.374 149.671 174.772 150.356 173.981C151.515 172.988 152.08 174.809 152.218 175.843C152.416 176.767 152.425 177.33 152.304 177.663C152.047 178.373 151.202 178.033 150.356 177.912Z" fill="#13181D"/>
<path d="M150.356 177.912C147.118 177.45 147.213 177.217 148.585 175.843C148.695 176.457 149.593 177.681 152.304 177.663C152.047 178.373 151.202 178.033 150.356 177.912Z" fill="#E5BA95"/>
<path d="M142.701 175.223C141.666 174.602 142.287 173.932 142.701 173.361C144.059 175.181 146.163 175.361 147.046 175.223C147.253 178.326 144.425 176.257 142.701 175.223Z" fill="#E5BA95"/>
<path d="M142.055 172.74C141.445 174.218 140.425 173.498 139.39 172.119C138.924 171.497 137.99 170.525 138.521 169.641C139.348 171.499 141.222 172.481 142.055 172.74Z" fill="#E5BA95"/>
<path d="M150.356 173.981C151.515 172.988 152.08 174.809 152.218 175.843C152.416 176.767 152.425 177.33 152.304 177.663C149.593 177.681 148.695 176.457 148.585 175.843C149.053 175.374 149.671 174.772 150.356 173.981Z" fill="#F7CDA9"/>
<path d="M145.597 171.499C147.253 171.533 147.046 173.981 147.046 175.223C146.163 175.361 144.059 175.181 142.701 173.361C144.025 171.531 145.115 171.426 145.597 171.499Z" fill="#F7CDA9"/>
<path d="M139.597 168.809C140.632 168.339 142.825 167.526 142.494 170.671C142.396 171.605 142.245 172.279 142.055 172.74C141.222 172.481 139.348 171.499 138.521 169.641C138.696 169.348 139.032 169.066 139.597 168.809Z" fill="#F7CDA9"/>
<path d="M175.001 199.072C176.286 199.072 194.45 205.9 191.346 215.003C190.513 216.312 191.056 216.416 191.76 216.192C197.76 207.348 185.76 196.796 172.725 190.68C172.816 191.184 173.127 191.088 173.552 191.416C177.194 194.23 175.897 196.589 174.794 197.417C173.139 198.741 174.242 199.072 175.001 199.072Z" fill="#F7CDA9"/>
<path d="M191.553 193.899C189.903 194.033 189.691 195.348 191.76 198.244C192.737 199.612 194.353 201.596 195.484 199.899C195.484 199.899 196.519 197.83 196.725 195.761C196.861 194.407 196.932 193.463 191.553 193.899Z" fill="#F7CDA9"/>
<path d="M179.346 179.002C184.311 178.175 186.587 177.554 186.38 185.209C186.173 186.382 184.932 187.485 180.794 184.175C179.139 182.933 177.07 179.382 179.346 179.002Z" fill="#F7CDA9"/>
<path fill-rule="evenodd" clip-rule="evenodd" d="M117.896 45.7577C118.723 45.2749 120.544 44.8473 121.206 46.9991C121.206 49.4819 121.62 52.3786 123.896 54.8614C124.613 55.5781 124.864 55.519 126.128 55.2215C126.323 55.1755 126.543 55.1237 126.793 55.0683C129.689 54.5855 136.765 53.9096 141.896 55.0683C143 55.3442 145.248 55.689 145.414 54.8614C146.379 54.0338 148.31 51.3027 148.31 46.9991C148.448 46.1715 149.304 44.7646 151.621 45.7577C152.38 46.2405 154.062 47.7026 154.724 49.6888C155.001 50.4475 155.803 51.551 156.795 49.8957C159.07 48.1026 163.787 42.6543 164.449 35.2058C164.311 34.3092 165.483 31.688 168.38 32.5156C172.518 34.9984 193.829 58.7921 175.415 81.7587C175.338 81.8546 175.251 81.9501 175.161 82.0484C174.701 82.553 174.172 83.1333 174.587 84.2415C175.001 85.0691 175.828 87.2209 175.828 89.2071C175.759 89.8968 176.243 90.4482 177.897 89.8275C180.173 89.2068 184.932 88.1723 185.967 91.6896C186.342 92.9657 186.587 97.4001 181.001 104.104C180.656 104.518 180.38 105.138 182.035 104.931C184.519 105.138 188.946 107.704 184.311 114.656C182.656 116.518 181.001 118.38 174.794 120.449C174.74 120.467 174.689 120.483 174.641 120.499L174.64 120.499C174.135 120.662 173.93 120.729 173.552 121.484C172.311 123.966 167.759 129.139 161.759 131.622C160.794 132.105 159.649 133.029 162.794 132.863C165.759 132.863 173.056 131.705 178.518 127.07C179.07 126.725 179.718 125.746 177.897 124.587C176.932 123.759 175.663 121.897 178.311 121.897C189.277 121.484 199.622 127.277 207.277 146.312C208.193 148.588 208.933 149.208 205.002 148.795C202.726 148.795 197.292 151.65 195.277 158.105C195.208 159.002 194.574 160.381 192.587 158.726C190.38 157.347 184.27 155.209 177.484 157.691C176.353 158.105 176.035 158.519 175.001 156.657C174.035 155.416 171.576 153.17 170.035 152.933C169.139 152.795 167.759 152.726 169.207 154.174C170.035 154.588 174.38 166.423 173.552 172.381C173.38 173.623 173.552 173.623 173.966 173.83C174.932 174.313 177.318 175.651 179.139 177.14C179.277 177.278 179.635 177.554 179.966 177.554C184.311 176.933 187.622 175.692 187.622 183.14C187.622 183.554 187.746 184.382 188.242 184.382C189.622 185.554 192.67 188.603 193.829 191.416C193.967 191.899 194.036 192.451 195.07 192.658C197.553 193.072 198.588 193.279 197.76 198.658C197.66 199.305 197.085 199.812 197.346 200.727C198.588 205.072 200.036 218.426 189.691 217.9C188.449 217.837 187.001 217.486 189.07 216.245C191.139 213.141 191.139 207.004 174.173 200.727C172.518 200.115 172.518 199.861 171.897 200.313C169.745 201.883 163 202.347 159.897 202.382C151.124 202.548 147.552 199.505 146.862 197.962C146.655 196.796 145.759 197.16 145.207 197.417C137.427 200.065 128.034 198.52 124.31 197.417C122.861 196.796 122.723 197.436 122.448 197.962C118.723 203.21 107.298 202.52 103.62 201.968C96.502 201.141 94.171 197.486 93.8951 195.761C93.8951 192.865 95.4124 191.859 96.171 191.416C96.8331 191.251 96.8607 190.52 96.7918 190.175C96.6262 184.547 97.5504 182.175 98.0332 181.692C98.8608 181.03 98.2401 179.927 97.8263 179.459C92.6951 170.886 97.1518 159.59 100.022 155.015C102.109 152.708 100.255 152.803 99.0677 153.14C96.4838 153.636 94.6806 156.105 94.102 157.278C93.9365 158.602 92.3778 158.105 91.6192 157.691C85.3294 155.009 78.6963 157.401 76.166 158.933C75.0589 160.423 74.1445 158.864 73.8256 157.898C69.6876 149.126 64.653 148.174 62.653 148.795C61.3288 149.291 61.4116 148.183 61.6185 147.566C66.9979 130.173 78.5844 121.484 89.9641 121.897C93.2745 121.897 93.0676 123.553 90.5848 125.415C89.5503 126.035 90.3779 126.439 91.2055 127.07C98.1574 132.366 104.861 133.001 107.344 132.656C109.661 132.822 108.447 132.036 107.551 131.622C101.757 128.518 97.6884 124.242 96.5849 122.311C95.9228 120.987 94.7918 120.38 94.309 120.242C85.2053 117.263 83.0673 111.966 83.1363 109.69C82.9708 106.049 86.1019 105.001 87.6882 104.931C89.6744 105.428 88.9296 104.449 88.3088 103.897C84.1708 99.4278 83.2742 94.7244 83.3432 92.9314C83.3432 91.2764 84.5846 90.1726 85.2053 89.8275C86.5295 88.6689 90.171 89.3448 91.8262 89.8275C93.6469 90.8207 93.9642 89.8275 93.8952 89.2068C93.8952 87.055 94.7918 84.7239 95.3435 83.8274C95.6745 83.4963 94.5159 82.3103 93.8952 81.7587C78.5017 60.3964 92.3089 40.029 101.137 32.5156C103.413 31.688 104.93 33.6191 105.068 34.7916C105.068 41.4124 109.758 47.2057 112.103 49.2747C114.089 51.592 114.447 50.792 114.378 50.1023C115.254 48.116 117.088 46.3783 117.896 45.7577ZM134.862 56.1029C132.034 57.6891 128.076 61.9375 134.862 66.2411C137.759 64.7928 141.814 60.7375 134.862 56.1029ZM138.379 56.5167C141.483 56.2408 149.676 56.9305 157.621 61.8961C157.847 62.0373 158.14 62.0396 158.364 61.935C158.393 61.9211 158.422 61.9055 158.449 61.888C158.49 61.8614 158.527 61.8306 158.56 61.7959C158.889 61.4464 158.748 60.701 157.001 59.8271C157.045 58.5805 157.032 56.4428 156.795 54.8614C156.664 53.9932 156.466 53.2927 156.173 52.9993C155.966 52.5166 155.842 51.5924 157.001 51.7579C159.828 50.0337 165.608 44.3095 166.104 35.2058C166.195 34.7508 166.508 34.1218 167.139 34.0789C167.464 34.0568 167.873 34.1907 168.38 34.5851C169.437 35.6422 170.748 37.1276 172.115 38.9299C176.278 44.418 180.961 52.8448 180.587 61.0685C180.587 64.7237 179.553 73.0688 174.587 79.6896C174.122 80.3103 173.263 81.2621 172.932 80.1034C172.725 79.4138 172.311 78.2413 171.898 78.0344C171.829 77.9827 171.755 77.9568 171.691 77.9633C171.497 77.9827 171.38 78.293 171.691 79.0689C172.191 81.5689 172.656 83.054 173.067 84.365C173.506 85.7665 173.883 86.9691 174.173 89.0002C174.21 89.255 174.229 89.5223 174.249 89.7877C174.339 91.0315 174.426 92.2332 176.242 91.8969C177.032 91.7506 177.764 91.5985 178.439 91.4584C178.83 91.3773 179.201 91.3003 179.553 91.2306C182.896 90.569 184.519 90.5748 184.519 94.1728C184.519 94.1963 184.519 94.2209 184.519 94.2466L184.519 94.2502C184.525 95.1077 184.54 97.1847 178.932 103.825L178.913 103.847C178.785 103.999 178.653 104.154 178.518 104.311C177.829 105.001 177.07 106.339 179.553 106.173C180.693 106.085 182.542 106.26 183.695 107.208C184.354 107.75 184.786 108.546 184.725 109.69C184.529 113.415 180.174 116.725 173.967 119.001C173.346 119.208 172.932 119.622 172.725 119.829C170.079 123.357 165.435 128.06 158.418 131.622C152.267 134.743 144.292 136.988 134.241 136.795C128.819 136.921 119.555 135.587 111.225 131.622C105.887 129.081 100.933 125.459 97.6197 120.449C97.2749 119.898 96.4197 118.836 95.7576 119.001C92.1023 117.691 84.8332 113.994 84.9987 109.69C84.9735 109.237 85.0992 108.623 85.5029 108.035C86.2044 107.013 87.7452 106.068 90.792 106.173C91.5359 106.111 92.4804 105.625 90.98 104.205C90.8456 104.095 90.7106 103.977 90.5757 103.85C90.5206 103.804 90.4632 103.758 90.4035 103.711C89.4294 102.945 88.0606 101.87 90.3779 103.69L90.4035 103.711C90.3288 103.625 90.2512 103.534 90.171 103.439C88.2434 101.156 84.8395 96.2685 84.9984 92.9314C84.9984 91.9157 85.8686 90.6099 89.3433 91.1339C90.3514 91.2859 91.5787 91.592 93.0676 92.1038C93.9642 92.4486 95.3435 92.5176 95.3435 90.8624C95.3435 89.8278 95.5504 86.7243 98.0332 78.6551C98.0811 78.4996 98.0846 78.3103 98.0332 78.2139C97.9739 78.1026 97.8413 78.1154 97.6194 78.4482C97.5613 78.5644 97.5032 78.6969 97.436 78.8503C97.2637 79.2432 97.0313 79.7732 96.5849 80.5172C96.0138 81.4691 95.7573 81.138 95.3435 80.1034C89.8842 73.6692 83.2489 56.9088 97.4622 38.9299C98.3315 37.8303 99.2788 36.7261 100.309 35.6195C100.71 35.0855 101.343 34.4482 101.964 34.2327C102.628 34.0028 103.278 34.2526 103.62 35.6195C104.033 40.1713 105.689 45.5508 112.723 51.9648C112.764 52.0053 112.807 52.0462 112.85 52.0879C113.254 52.4728 113.734 52.931 113.137 53.8269C112.841 54.0242 112.639 54.1745 112.509 54.8614C112.366 55.6147 112.309 57.0133 112.309 59.827C110.362 60.8759 110.367 61.9247 111.068 62.1878C111.335 62.288 111.703 62.2742 112.103 62.103C114.861 60.103 122.572 56.1857 131.344 56.5167C130.956 57.0785 130.565 57.7884 130.256 58.5856C129.088 61.605 129.101 65.8771 134.862 68.1032C137.518 67.2384 141.691 64.2046 139.44 58.5856C139.178 57.9313 138.828 57.2418 138.379 56.5167ZM90.3779 103.69L90.4035 103.711C89.4294 102.945 88.0606 101.87 90.3779 103.69ZM114.999 58.5856C113.965 59.4129 113.965 58.7924 113.965 58.3784C114.045 52.944 116.044 50.3662 117.337 48.6991L117.337 48.6982C117.462 48.5377 117.58 48.3856 117.689 48.2402C118.723 46.7919 119.758 46.3781 119.965 47.4126C120.13 52.0472 121.689 54.4475 122.448 55.0683C123.441 56.0617 122.31 56.3096 121.62 56.3094C118.972 56.6404 116.103 57.9648 114.999 58.5856ZM154.724 58.5856C155.759 59.4129 155.759 58.7924 155.759 58.3784C155.679 52.944 153.68 50.3663 152.387 48.6991C152.262 48.5382 152.144 48.3859 152.035 48.2402C151 46.7919 149.966 46.3781 149.759 47.4126C149.593 52.0472 148.035 54.4475 147.276 55.0683C146.283 56.0617 147.414 56.3096 148.104 56.3094C150.752 56.6404 153.621 57.9648 154.724 58.5856ZM184.932 133.07C171.69 141.553 159.69 137.829 158.035 134.725C157.373 133.567 158.587 133.691 159.276 133.898C169.042 135.222 173.346 132.077 178.932 128.725C182.276 126.719 181.415 125.622 180.173 125.001C178.684 124.008 179.415 123.484 179.966 123.346C192.546 122.849 201.484 136.794 204.381 143.829C198.588 137.208 190.932 133.622 187.829 132.656C186.836 131.994 185.484 132.656 184.932 133.07ZM167.139 150.243C166.104 148.174 163.207 144.657 160.104 139.691C160.059 139.618 160.016 139.549 159.978 139.484C159.177 138.133 159.747 138.262 160.931 138.656C172.352 142.132 181.415 137.898 184.518 135.346C185.511 134.518 186.38 134.725 185.553 135.967C184.054 138.216 183.201 141.913 180.685 147.76C179.749 149.934 178.584 152.405 177.07 155.209C176.449 156.243 176.104 155.622 175.828 155.209C174.173 152.395 171.483 151.277 169.414 151.484C167.759 151.484 167.404 150.774 167.139 150.243ZM179.553 155.416C177.732 156.409 178.104 155.278 178.518 154.588C179.884 152.648 181.174 150.233 182.303 147.76C184.424 143.114 185.975 138.262 186.38 135.967C186.794 134.518 187.304 135.226 187.622 135.76C190.288 140.244 191.89 145.226 192.759 149.415C193.374 152.377 193.622 154.943 193.622 156.657C193.622 157.65 192.656 157.071 192.174 156.657C188.201 154.174 182.104 154.795 179.553 155.416ZM195.07 155.002C194.574 156.326 194.312 155.278 194.243 154.588C194.243 151.955 193.852 149.343 193.27 146.933C192.023 141.764 189.898 137.519 188.863 135.967C187.87 134.477 189.139 134.794 189.898 135.139C192.693 136.038 196.332 138.788 199.415 141.511C201.444 143.301 203.231 145.08 204.381 146.312C205.209 147.553 204.381 147.553 203.139 147.76C198.381 149.208 196.174 152.933 195.07 155.002ZM84.5039 132.876C97.7457 141.359 109.746 137.635 111.401 134.531C112.063 133.373 110.849 133.497 110.16 133.704C100.394 135.028 96.0905 131.883 90.5041 128.531C87.1605 126.525 88.0213 125.428 89.2627 124.807C90.7524 123.814 90.0213 123.29 89.4696 123.152C76.8899 122.655 67.9518 136.6 65.0551 143.635C70.8484 137.014 78.5038 133.428 81.6073 132.462C82.6004 131.8 83.9522 132.462 84.5039 132.876ZM109.332 139.497C106.229 144.463 103.332 147.98 102.298 150.049C102.032 150.58 101.677 151.29 100.022 151.29C97.9526 151.083 95.2628 152.201 93.6076 155.015C93.3318 155.428 92.9869 156.049 92.3662 155.015C90.8521 152.211 89.6867 149.74 88.7512 147.566C86.2352 141.719 85.3824 138.022 83.8832 135.773C83.0556 134.531 83.9246 134.324 84.9177 135.152C88.0213 137.704 97.0836 141.938 108.505 138.462C109.689 138.068 110.259 137.939 109.458 139.29C109.42 139.356 109.378 139.424 109.332 139.497ZM90.9179 154.394C91.3317 155.084 91.7041 156.215 89.8834 155.222C87.3316 154.601 81.2349 153.98 77.2624 156.463C76.7796 156.877 75.8141 157.456 75.8141 156.463C75.8141 154.749 76.0625 152.183 76.677 149.221C77.5462 145.032 79.1477 140.05 81.8142 135.566C82.1319 135.032 82.6418 134.324 83.0556 135.773C83.4607 138.068 85.0116 142.92 87.1329 147.566C88.2619 150.039 89.5525 152.454 90.9179 154.394ZM75.1933 154.394C75.1244 155.084 74.8623 156.132 74.3657 154.808C73.2623 152.739 71.0553 149.014 66.2966 147.566C65.0551 147.359 64.2275 147.359 65.0551 146.118C66.2046 144.886 67.9925 143.108 70.0208 141.317C73.104 138.594 76.7427 135.844 79.5383 134.945C80.2969 134.6 81.5659 134.283 80.5728 135.773C79.5382 137.325 77.4132 141.57 76.166 146.739C75.5842 149.15 75.1933 151.761 75.1933 154.394ZM120.379 137.001C131.8 140.311 144.034 138.38 148.724 137.001C150.173 136.794 153.69 136.049 156.173 134.725C156.793 136.725 158.78 141.594 161.759 145.07C167.345 152.243 176.656 170.571 169.414 179.623C169.139 179.968 168.711 180.74 169.208 181.071C170.863 182.727 171.07 184.216 171.07 190.175C170.455 190.175 169.856 190.13 169.305 190.088C167.813 189.976 166.669 189.889 166.518 190.796C166.518 191.623 166.725 191.83 170.656 191.83C171.49 191.83 173.821 193.359 173.966 194.52C174.173 196.175 173.552 195.968 172.725 194.52C171.966 193.485 170.035 192.203 168.38 195.348C168.242 196.244 167.801 197.541 167.139 195.555C166.242 193.968 163.911 191.954 161.759 196.589C161.621 197.279 161.221 198.286 160.725 196.796C159.571 194.761 156.484 192.326 155.004 198.742C154.989 198.845 154.965 198.955 154.931 199.072C154.844 199.486 154.931 200.52 153.276 199.899C151.828 199.486 148.807 198.368 148.31 197.21C148.173 196.658 148.31 195.348 149.345 193.279C149.643 192.683 150.368 190.269 150.06 189.114C149.939 188.663 149.661 188.404 149.138 188.52C148.822 188.457 148.39 188.683 148.16 190.796C148.14 190.987 148.121 191.193 148.104 191.416C147.483 196.175 145.621 195.968 143.345 196.382C137.552 197.624 129.896 197.417 123.896 195.968C122.843 195.714 121.703 195.058 121.206 191.416C121.195 191.229 121.172 191.018 121.137 190.796C120.954 189.627 120.454 188.172 119.758 188.52C119.426 188.52 119.126 188.711 119.043 189.347C118.952 190.034 119.114 191.238 119.758 193.279C120.517 194.451 121.551 196.313 120.999 197.21C120.448 198.106 118.558 199.941 115.413 200.106C114.792 200.139 114.213 200.065 114.379 198.244C114.359 198.147 114.353 198.053 114.357 197.962C114.081 196.023 111.156 192.65 108.792 196.589C108.585 197.21 108.047 198.244 107.551 196.589C107.076 195.005 104.489 191.789 102.171 195.761C101.964 196.244 101.468 196.879 101.137 195.555C100.447 194.106 98.5298 191.954 96.378 194.934C95.8263 195.555 94.9297 196.258 95.7573 194.106C96.1022 193.348 96.9987 191.83 99.6885 191.83C104.24 191.83 103.47 190.175 101.137 190.175C100.309 190.175 99.2747 190.175 98.8608 190.382C98.1948 190.715 98.1988 190.512 98.2257 189.126C98.2323 188.79 98.2401 188.384 98.2401 187.899C98.2401 186.313 98.6126 182.727 100.102 181.071C100.447 180.795 100.888 180.078 99.8954 179.416C96.7918 175.761 94.309 162.45 107.758 145.07C109.009 143.453 109.827 142.246 113.137 134.311C115.62 135.54 117.068 136.22 120.379 137.001ZM172.311 197.83C171.621 198.589 170.035 199.899 168.587 199.693C168.571 199.313 168.578 198.846 168.621 198.352C168.768 196.692 169.332 194.727 170.863 194.727C171.576 194.727 173.241 195.925 172.736 197.21C172.654 197.416 172.517 197.624 172.311 197.83ZM167.552 199.899C167.139 200.52 163.621 201.141 161.759 200.313C161.802 199.945 161.852 199.601 161.91 199.279C162.53 195.834 163.962 194.934 164.656 194.934C165.935 194.934 166.967 197.035 167.37 198.658C167.488 199.135 167.552 199.571 167.552 199.899ZM160.931 200.313C161.052 200.727 159.069 201.141 155.759 200.52C155.659 200.221 155.74 199.476 155.96 198.658C156.62 196.209 158.532 193.1 160.608 199.279C160.716 199.598 160.823 199.943 160.931 200.313ZM97.2056 195.348C97.8263 194.727 99.0677 193.279 100.93 197.003V198.13V198.658C100.93 199.486 100.93 200.313 99.2747 199.486L97.2056 198.244C97.1355 198.212 97.066 198.174 96.9987 198.13C96.3378 197.693 95.8911 196.662 97.2056 195.348ZM107.551 199.899C107.749 200.715 107.551 200.727 106.102 200.727C104.421 200.771 101.551 200.727 101.757 199.486C101.856 199.053 101.971 198.636 102.101 198.244C103.262 194.732 105.577 193.159 107.25 198.779C107.353 199.125 107.453 199.498 107.551 199.899ZM113.758 199.899C113.827 200.244 113.857 200.675 112.516 200.727C110.723 200.796 107.965 200.727 108.378 199.899C108.459 199.697 108.545 199.489 108.635 199.279C109.799 196.552 111.641 193.544 113.274 198.244C113.437 198.716 113.599 199.265 113.758 199.899ZM186.38 185.209C186.587 177.554 184.311 178.175 179.346 179.002C177.07 179.382 179.139 182.933 180.794 184.175C184.932 187.485 186.173 186.382 186.38 185.209ZM191.76 198.244C189.691 195.348 189.903 194.033 191.553 193.899C196.932 193.463 196.861 194.407 196.725 195.761C196.519 197.83 195.484 199.899 195.484 199.899C194.353 201.596 192.737 199.612 191.76 198.244ZM172.725 176.726C172.794 175.692 172.932 174.451 174.794 176.106C175.828 176.933 177.897 177.761 177.07 178.589C174.794 180.244 180.587 190.382 187.001 187.278C187.415 187.072 187.622 185.83 188.449 187.278C189.07 188.106 190.932 189.72 191.76 191.21C192.174 192.037 192.629 192.617 191.139 192.451C189.553 192.382 187.125 193.527 190.105 198.658C191.346 200.244 194.077 203.169 195.07 202.175C195.484 201.486 196.312 200.893 196.312 204.037C196.312 207.182 196.932 214.176 192.587 215.831C192.335 215.967 192.035 216.105 191.76 216.192C191.056 216.416 190.513 216.312 191.346 215.003C194.45 205.9 176.286 199.072 175.001 199.072C174.242 199.072 173.139 198.741 174.794 197.417C175.897 196.589 177.194 194.23 173.552 191.416C173.127 191.088 172.816 191.184 172.725 190.68C172.69 190.485 172.688 190.198 172.725 189.761C172.896 187.761 172.887 183.306 171.483 181.485C171.208 181.209 170.821 180.451 171.483 179.623C171.894 179.14 172.716 177.885 172.725 176.726Z" fill="#13181D"/>
<path d="M148.724 137.001C144.034 138.38 131.8 140.311 120.379 137.001C120.05 137.759 119.729 138.489 119.419 139.193L119.419 139.194C115.332 148.49 113.251 153.223 121.785 156.963C121.916 156.971 122.116 157.017 122.404 157.113C133.784 163.527 137.923 175.527 119.302 179.459C118.134 179.676 116.7 179.82 115.224 179.748C118.217 185.508 124.076 189.347 134.241 189.347C142.805 189.347 150.666 186.584 154.572 179.365C152.766 179.574 150.95 179.419 149.529 179.154C130.907 175.223 135.047 163.222 146.426 156.809C146.715 156.712 146.915 156.666 147.046 156.658C160.701 154.174 148.724 137.001 148.724 137.001Z" fill="#FFE3CB"/>
<path fill-rule="evenodd" clip-rule="evenodd" d="M156.173 134.725C153.69 136.049 150.173 136.794 148.724 137.001C148.724 137.001 160.701 154.174 147.046 156.658C147.589 156.624 146.927 157.247 146.426 157.636C142.786 160.284 139.805 164.947 138.77 166.947C137.942 168.767 138.977 168.257 139.597 167.774C142.246 165.788 143.735 168.602 143.322 170.464C142.973 172.035 143.84 171.343 144.149 171.085C146.135 169.43 147.667 171.499 147.667 172.74C147.667 175.772 147.84 175.506 148.505 174.486L148.506 174.485C148.567 174.392 148.632 174.292 148.701 174.188C151.058 171.327 152.593 173.395 153.083 175.492C158.408 175 159.076 164.942 158.744 159.974C158.909 157.988 159.667 159.073 160.025 159.865C160.106 159.735 160.45 160.278 160.701 160.74C162.15 165.498 162.15 169.223 161.943 172.74C161.27 177.318 157.938 178.975 154.572 179.365C150.666 186.584 142.805 189.347 134.241 189.347C124.076 189.347 118.217 185.508 115.224 179.748C111.554 179.57 107.626 178.061 106.888 173.045C106.681 169.527 106.681 165.803 108.129 161.044C108.492 160.379 109.047 159.543 108.73 160.802C108.987 159.905 109.584 158.567 109.915 160.388C109.624 165.353 110.378 175.409 115.723 175.905C116.185 173.773 117.732 171.582 120.13 174.493C120.16 174.538 120.189 174.582 120.217 174.624C120.254 174.682 120.29 174.737 120.325 174.791C120.991 175.811 121.164 176.077 121.164 173.045C121.164 171.803 122.695 169.734 124.682 171.389C124.991 171.647 125.858 172.339 125.509 170.769C125.095 168.907 126.585 166.093 129.233 168.079C129.854 168.562 130.889 169.072 130.061 167.251C129.026 165.251 126.045 160.589 122.404 157.941C121.904 157.552 121.241 156.929 121.785 156.963C113.251 153.223 115.332 148.49 119.419 139.194L119.419 139.193C119.729 138.489 120.05 137.759 120.379 137.001C117.068 136.22 115.62 135.54 113.137 134.311C109.827 142.246 109.009 143.453 107.758 145.07C94.309 162.45 96.7918 175.761 99.8954 179.416C100.888 180.078 100.447 180.795 100.102 181.071C98.6126 182.727 98.2401 186.313 98.2401 187.899C98.2401 188.384 98.2323 188.79 98.2257 189.126C98.1988 190.512 98.1948 190.715 98.8608 190.382C99.2747 190.175 100.309 190.175 101.137 190.175C103.47 190.175 104.24 191.83 99.6885 191.83C96.9987 191.83 96.1022 193.348 95.7573 194.106C94.9297 196.258 95.8263 195.555 96.378 194.934C98.5298 191.954 100.447 194.106 101.137 195.555C101.468 196.879 101.964 196.244 102.171 195.761C104.489 191.789 107.076 195.005 107.551 196.589C108.047 198.244 108.585 197.21 108.792 196.589C111.156 192.65 114.081 196.023 114.357 197.962C114.392 197.277 115.048 196.772 115.413 196.589C116.448 196.382 117.074 191.854 116.448 189.347C115.785 186.699 117.902 188.244 119.043 189.347C119.126 188.711 119.426 188.52 119.758 188.52C120.454 188.172 120.954 189.627 121.137 190.796C125.474 192.589 136.951 195.099 148.16 190.796C148.39 188.683 148.822 188.457 149.138 188.52C149.661 188.404 149.939 188.663 150.06 189.114C151.27 188.088 153.524 186.699 152.862 189.347C152.517 191.761 152.324 196.755 154.311 197.417C154.621 197.479 155.142 197.83 155.004 198.742C156.484 192.326 159.571 194.761 160.725 196.796C161.221 198.286 161.621 197.279 161.759 196.589C163.911 191.954 166.242 193.968 167.139 195.555C167.801 197.541 168.242 196.244 168.38 195.348C170.035 192.203 171.966 193.485 172.725 194.52C173.552 195.968 174.173 196.175 173.966 194.52C173.821 193.359 171.49 191.83 170.656 191.83C166.725 191.83 166.518 191.623 166.518 190.796C166.669 189.889 167.813 189.976 169.305 190.088C169.856 190.13 170.455 190.175 171.07 190.175C171.07 184.216 170.863 182.727 169.208 181.071C168.711 180.74 169.139 179.968 169.414 179.623C176.656 170.571 167.345 152.243 161.759 145.07C158.78 141.594 156.793 136.725 156.173 134.725Z" fill="#C0DE9F"/>
<path d="M114.75 178.217C115.095 178.286 115.578 178.217 115.578 177.183C115.578 176.791 115.627 176.349 115.723 175.905C110.378 175.409 109.624 165.353 109.915 160.388C109.584 158.567 108.987 159.905 108.73 160.802C108.686 160.978 108.624 161.194 108.543 161.458C108.519 161.716 108.494 161.978 108.468 162.244L108.468 162.245C107.847 168.737 107.014 177.432 114.503 178.195C114.585 178.203 114.667 178.211 114.75 178.217Z" fill="#AADB76"/>
<path d="M153.253 176.878C153.253 177.913 153.736 177.982 154.08 177.913C154.535 177.878 154.96 177.814 155.358 177.725C162.012 176.228 160.873 167.401 160.288 161.153C160.028 160.31 159.972 159.948 160.025 159.865C159.667 159.073 158.909 157.988 158.744 159.974C159.076 164.942 158.408 175 153.083 175.492C153.195 175.972 153.253 176.454 153.253 176.878Z" fill="#AADB76"/>
<path d="M174.794 176.106C172.932 174.451 172.794 175.692 172.725 176.726C172.716 177.885 171.894 179.14 171.483 179.623C170.821 180.451 171.208 181.209 171.483 181.485C172.887 183.306 172.896 187.761 172.725 189.761C172.688 190.198 172.69 190.485 172.725 190.68C185.76 196.796 197.76 207.348 191.76 216.192C192.035 216.105 192.335 215.967 192.587 215.831C196.932 214.176 196.312 207.182 196.312 204.037C196.312 200.893 195.484 201.486 195.07 202.175C194.077 203.169 191.346 200.244 190.105 198.658C187.125 193.527 189.553 192.382 191.139 192.451C192.629 192.617 192.174 192.037 191.76 191.21C190.932 189.72 189.07 188.106 188.449 187.278C187.622 185.83 187.415 187.072 187.001 187.278C180.587 190.382 174.794 180.244 177.07 178.589C177.897 177.761 175.828 176.933 174.794 176.106Z" fill="#C0DE9F"/>
<path fill-rule="evenodd" clip-rule="evenodd" d="M125.006 144.303L108.336 135.372C108.005 136.43 106.986 138.944 105.557 140.532C105.359 140.929 100.762 147.211 98.8096 152.042C97.7442 154.679 97.222 156.21 96.6266 158.988C96.0312 161.767 96.0313 163.354 96.0313 166.133C96.0312 168.911 96.6255 170.085 97.8173 172.285C98.1656 172.928 98.3998 173.267 98.8096 173.873C99.2193 174.478 112.027 182.287 131.555 182.605C131.555 182.605 131.555 155.753 131.555 138.547C129.307 137.85 125.8 136.761 125.8 136.761C125.18 138.776 125.006 144.303 125.006 144.303ZM129.174 164.148C128.975 159.782 126.197 156.607 125.8 156.21C124.836 155.204 123.996 154.428 123.268 153.828C118.719 152.902 108.697 153.114 105.008 161.37C104.801 163.369 104.954 165.151 105.16 167.522C105.436 170.697 109.725 172.88 110.519 173.079C116.075 174.27 122.625 171.491 123.22 171.094C126.594 169.705 129.372 165.537 129.174 164.148Z" fill="white"/>
<path fill-rule="evenodd" clip-rule="evenodd" d="M137.31 136.761L134.433 137.654C134.433 137.654 132.679 138.199 131.555 138.547C131.555 155.753 131.555 182.605 131.555 182.605C143.595 181.414 164.896 177.246 164.697 174.27C164.697 173.785 165.311 172.862 165.789 172.143C165.898 171.979 166 171.825 166.087 171.69C166.88 170.442 167.476 167.324 167.476 166.331C167.476 165.704 167.329 161.56 166.682 158.591C165.909 155.046 163.903 150.653 163.507 149.859C163.458 149.762 163.408 149.609 163.337 149.395C162.894 148.047 161.651 144.268 154.973 136.563L138.104 144.303C138.104 144.303 137.892 138.776 137.31 136.761ZM140.463 154.757C139.653 154.897 138.942 155.019 138.303 155.019C135.326 156.938 133.143 162.362 133.738 163.553C133.738 163.567 133.738 163.585 133.738 163.605C133.729 164.127 133.693 166.456 137.707 169.705C141.875 173.079 150.015 173.313 150.21 173.277C154.915 172.406 155.642 171.382 156.286 170.473C156.376 170.347 156.464 170.223 156.561 170.102C157.354 168.448 157.95 165.339 157.95 164.942C157.95 163.273 157.703 160.534 157.501 159.645C157.447 159.407 157.396 159.301 157.354 159.385C148.744 153.326 143.773 154.185 140.463 154.757Z" fill="white"/>
<path d="M128.181 133.983C119.449 133.665 113.032 130.94 110.915 129.617L108.336 135.372L125.006 144.303C125.006 144.303 125.18 138.776 125.8 136.761C126.42 134.746 128.181 133.983 128.181 133.983Z" fill="white"/>
<path d="M152.195 130.014C151.004 131.403 136.781 133.983 134.929 133.983C134.929 133.983 136.729 134.746 137.31 136.761C137.892 138.776 138.104 144.303 138.104 144.303L154.973 136.563C153.584 133.586 152.393 130.014 152.195 130.014Z" fill="white"/>
<path d="M131.555 135.57C131.555 135.57 128.34 133.983 128.181 133.983C128.181 133.983 126.42 134.746 125.8 136.761L131.555 138.547L134.433 137.654L137.31 136.761C136.729 134.746 134.929 133.983 134.929 133.983L131.555 135.57Z" fill="#E8E8E8"/>
<path d="M128.181 133.983C119.449 133.665 113.032 130.94 110.915 129.617L108.336 135.372M128.181 133.983C128.34 133.983 131.555 135.57 131.555 135.57L134.929 133.983M128.181 133.983C128.181 133.983 126.42 134.746 125.8 136.761M134.929 133.983C136.781 133.983 151.004 131.403 152.195 130.014C152.393 130.014 153.584 133.586 154.973 136.563M134.929 133.983C134.929 133.983 136.729 134.746 137.31 136.761M108.336 135.372L125.006 144.303C125.006 144.303 125.18 138.776 125.8 136.761M108.336 135.372C108.005 136.43 106.986 138.944 105.557 140.532C105.359 140.929 100.762 147.211 98.8096 152.042C97.7442 154.679 97.222 156.21 96.6266 158.988C96.0312 161.767 96.0313 163.354 96.0313 166.133C96.0312 168.911 96.6255 170.085 97.8173 172.285C98.1656 172.928 98.3998 173.267 98.8096 173.873C99.2193 174.478 112.027 182.287 131.555 182.605M154.973 136.563L138.104 144.303C138.104 144.303 137.892 138.776 137.31 136.761M154.973 136.563C161.651 144.268 162.894 148.047 163.337 149.395C163.408 149.609 163.458 149.762 163.507 149.859C163.903 150.653 165.909 155.046 166.682 158.591C167.329 161.56 167.476 165.704 167.476 166.331C167.476 167.324 166.88 170.442 166.087 171.69C166 171.825 165.898 171.979 165.789 172.143C165.311 172.862 164.697 173.785 164.697 174.27C164.896 177.246 143.595 181.414 131.555 182.605M125.8 136.761C125.8 136.761 129.307 137.85 131.555 138.547M125.8 136.761L131.555 138.547M137.31 136.761C135.063 137.459 133.803 137.85 131.555 138.547M137.31 136.761L134.433 137.654M131.555 138.547C131.555 155.753 131.555 182.605 131.555 182.605M131.555 138.547C132.679 138.199 134.433 137.654 134.433 137.654M131.555 138.547L134.433 137.654M138.303 155.019C137.906 155.019 141.279 152.042 143.264 151.249C143.973 150.965 145.447 150.653 145.447 150.653C145.447 150.653 147.363 150.117 148.225 149.264C149.039 148.46 149.391 147.806 149.615 146.684M138.303 155.019C135.326 156.938 133.143 162.362 133.738 163.553C133.738 163.567 133.738 163.585 133.738 163.605C133.729 164.127 133.693 166.456 137.707 169.705C141.875 173.079 150.015 173.313 150.21 173.277C154.915 172.406 155.642 171.382 156.286 170.473C156.376 170.347 156.464 170.223 156.561 170.102C157.354 168.448 157.95 165.339 157.95 164.942C157.95 163.273 157.703 160.534 157.501 159.645M138.303 155.019C138.942 155.019 139.653 154.897 140.463 154.757C143.773 154.185 148.744 153.326 157.354 159.385M157.354 159.385C157.396 159.301 157.447 159.407 157.501 159.645M157.354 159.385C157.487 159.479 157.469 159.617 157.501 159.645M154.973 153.233C154.973 153.233 155.568 153.233 156.164 154.225C156.703 155.124 157.815 159.916 157.501 159.645M114.488 147.676C114.819 148.338 117.227 150.316 119.251 151.645C120.743 152.626 120.552 151.588 123.268 153.828M106.748 154.622C105.699 157.484 105.2 159.52 105.008 161.37M123.268 153.828C123.996 154.428 124.836 155.204 125.8 156.21C126.197 156.607 128.975 159.782 129.174 164.148C129.372 165.537 126.594 169.705 123.22 171.094C122.625 171.491 116.075 174.27 110.519 173.079C109.725 172.88 105.436 170.697 105.16 167.522C104.954 165.151 104.801 163.369 105.008 161.37M123.268 153.828C118.719 152.902 108.697 153.114 105.008 161.37M132.944 141.326C132.944 141.046 133.143 140.532 133.738 140.532C134.333 140.532 134.532 141.046 134.532 141.326C134.532 141.605 134.333 142.119 133.738 142.119C133.143 142.119 132.944 141.605 132.944 141.326ZM132.944 148.47C132.944 148.191 133.143 147.676 133.738 147.676C134.333 147.676 134.532 148.191 134.532 148.47C134.532 148.75 134.333 149.264 133.738 149.264C133.143 149.264 132.944 148.75 132.944 148.47ZM132.944 156.011C132.944 155.732 133.143 155.218 133.738 155.218C134.333 155.218 134.532 155.732 134.532 156.011C134.532 156.291 134.333 156.805 133.738 156.805C133.143 156.805 132.944 156.291 132.944 156.011ZM132.944 173.873C132.944 173.593 133.143 173.079 133.738 173.079C134.333 173.079 134.532 173.593 134.532 173.873C134.532 174.152 134.333 174.666 133.738 174.666C133.143 174.666 132.944 174.152 132.944 173.873ZM132.944 164.744C132.944 164.464 133.143 163.95 133.738 163.95C134.333 163.95 133.54 163.751 133.738 164.744C133.937 165.736 134.333 165.537 133.738 165.537C133.143 165.537 132.944 165.023 132.944 164.744Z" stroke="#13181D" stroke-width="0.5"/>
<path d="M98.4766 100.931C102.115 99.6076 113.123 97.676 128.047 100.534C128.047 101.596 128.018 102.587 127.964 103.511H133.405V100.335C139.16 99.343 153.132 98.0729 162.975 100.931C162.975 101.318 163.055 103.863 162.542 106.884C162.005 110.048 160.819 113.734 158.212 116.013C157.364 116.755 155.37 118.106 153.846 118.395C153.651 118.432 142.732 119.586 137.573 115.617C134.875 113.542 133.937 108.183 133.802 106.884C133.802 106.884 132.011 106.303 130.825 106.289C129.563 106.274 127.65 106.884 127.65 106.884L127.702 106.321C126.571 114.905 123.021 116.077 122.688 116.41C114.948 119.784 108.598 118.395 107.606 118.196C101.074 116.061 98.9151 109.397 98.4945 104.413C98.3835 103.097 98.3936 101.898 98.4766 100.931Z" fill="black" fill-opacity="0.75"/>
<path d="M127.964 103.511C127.314 114.662 123.055 116.044 122.688 116.41C114.948 119.784 108.598 118.395 107.606 118.196C101.074 116.061 98.9151 109.397 98.4945 104.413M127.964 103.511C128.018 102.587 128.047 101.596 128.047 100.534C113.123 97.676 102.115 99.6076 98.4766 100.931C98.3936 101.898 98.3835 103.097 98.4945 104.413M127.964 103.511H133.405M127.964 103.511L127.65 106.884C127.65 106.884 129.563 106.274 130.825 106.289C132.011 106.303 133.802 106.884 133.802 106.884M133.405 103.511V100.335C139.16 99.343 153.132 98.0729 162.975 100.931M133.405 103.511L133.802 106.884M162.975 100.931C162.975 101.318 163.055 103.863 162.542 106.884M162.975 100.931L162.542 106.884M133.802 106.884C133.937 108.183 134.875 113.542 137.573 115.617C142.732 119.586 153.651 118.432 153.846 118.395C155.37 118.106 157.364 116.755 158.212 116.013C160.819 113.734 162.005 110.048 162.542 106.884M98.4945 104.413C95.3581 101.502 89.7204 94.0533 92.2606 87.5439M162.542 106.884C167.56 103.348 172.358 94.5296 172.04 87.5439" stroke="black" stroke-width="3"/>
<path fill-rule="evenodd" clip-rule="evenodd" d="M86.1045 71.3313C86.5331 73.2071 86.8774 75.0574 87.1345 76.6592C126.53 70.7756 137.037 52.1758 136.049 52.9081C135.259 53.494 133.422 50.9653 132.603 49.6276C111.25 68.0461 92.8538 71.7654 86.1045 71.3313Z" fill="#529F00"/>
<path d="M87.1185 89.5352C108.231 87.0773 142.992 61.8266 143.439 61.3652C150.379 56.5476 148.284 52.8685 147.777 51.9779C147.746 51.9226 147.72 51.8781 147.704 51.8447C143.657 46.1309 135.434 48.7461 133.174 49.4652C132.858 49.5655 132.659 49.6289 132.603 49.6276C133.422 50.9653 135.259 53.494 136.049 52.9081C137.037 52.1758 126.53 70.7756 87.1345 76.6592C86.8774 75.0574 86.5331 73.2071 86.1045 71.3313C86.0368 71.3269 85.9701 71.3221 85.9047 71.3169C77.1447 75.4602 76.0234 82.6933 76.5001 83.6463C78.0763 89.0536 85.7494 89.5051 87.1185 89.5352Z" fill="white"/>
<path fill-rule="evenodd" clip-rule="evenodd" d="M82.5055 61.4325C81.6401 59.9992 80.0461 57.3593 83.622 50.0591C83.8877 49.6879 89.7189 45.1035 100.491 45.4349C100.599 45.3092 100.793 45.048 101.06 44.6882C102.561 42.6643 106.378 37.522 110.137 35.8439C110.161 35.8322 110.192 35.8152 110.231 35.7939C111.097 35.3237 115.786 32.7785 123.262 39.5257C123.49 39.704 124.327 40.7197 125.419 42.0435C127.887 45.0373 131.654 49.6068 132.603 49.6276C111.25 68.0461 92.8538 71.7654 86.1045 71.3313C85.2932 67.7802 84.1795 64.1377 82.7828 61.917C82.7091 61.7697 82.6129 61.6104 82.5055 61.4325Z" fill="white"/>
<path d="M115.389 105.733C115.389 103.985 111.511 101.994 110.084 105.733C109.526 107.352 110.32 107.551 114.631 108.481C116.144 108.807 116.778 111.852 114.757 112.851C112.989 113.725 109.831 113.351 110.084 110.354M112.736 101.795V115.003" stroke="#C0DE9F" stroke-width="2"/>
<path d="M149.921 105.733C149.921 103.985 146.043 101.994 144.616 105.733C144.058 107.352 144.852 107.551 149.163 108.481C150.676 108.807 151.31 111.852 149.289 112.851C147.521 113.725 144.364 113.351 144.616 110.354M147.268 101.795V115.003" stroke="#C0DE9F" stroke-width="2"/>
</g>
<defs>
<clipPath id="clip0_2079_3969">
<path d="M0 10C0 4.47716 4.47715 0 10 0H260C265.523 0 270 4.47715 270 10V180H0V10Z" fill="white"/>
</clipPath>
</defs>
</svg>
